<?xml version="1.0" standalone="no"?>
<!DOCTYPE svg PUBLIC "-//W3C//DTD SVG 1.1//EN" "http://www.w3.org/Graphics/SVG/1.1/DTD/svg11.dtd" >
<svg xmlns="http://www.w3.org/2000/svg">
<metadata>Generated by IcoMoon</metadata>
<defs>
<font id="icomoon" horiz-adv-x="1024">
<font-face units-per-em="1024" ascent="960" descent="-64" />
<missing-glyph horiz-adv-x="1024" />
<glyph unicode="&#x20;" horiz-adv-x="512" d="" />
<glyph unicode="&#xe900;" glyph-name="bag" d="M640 448h128v-64c0-35.2-28.8-64-64-64s-64 28.8-64 64v64zM768 576v-128h-128v128zM384 448v-64c0-35.2-28.8-64-64-64s-64 28.8-64 64v64h128zM960 448l64-384c0-70.4-57.6-128-128-128h-768c-70.4 0-128 57.6-128 128l64 384c16.64 66.56 57.6 128 128 128h64v-128h-64.64l-63.36-384h767.36l-62.72 384h-64.64v128h64c70.4 0 128-57.6 128-128zM384 576v-128h-128v128zM640 512v-64h-256v128h256zM768 704v-128h-128v128c0 70.4-57.6 128-128 128s-128-57.6-128-128v-128h-128v128c0 141.44 114.56 256 256 256s256-114.56 256-256z" />
<glyph unicode="&#xe901;" glyph-name="remove" horiz-adv-x="910" d="M880.64 931.556c39.822-39.822 39.822-104.676-1.138-145.636l-279.893-281.031-145.636 145.636 281.031 281.031c39.822 39.822 105.813 39.822 145.636 0zM173.966 79.36c-20.48-20.48-47.787-30.72-73.956-30.72s-52.338 10.24-71.68 30.72c-39.822 39.822-39.822 104.676 0 144.498l282.169 283.307 144.498-145.636-281.031-282.169zM175.218 929.28l278.756-278.756-143.36-143.36-278.756 278.756c-39.822 39.822-39.822 104.676 0 143.36 39.822 39.822 103.538 39.822 143.36 0zM599.609 504.889l-144.498-143.246-144.498 145.522 143.36 143.36zM874.951 229.547c39.822-39.822 39.822-104.676 0-144.498-19.342-19.342-45.511-29.582-71.68-29.582-25.031 0-52.338 10.24-71.68 29.582l-276.48 276.48 144.498 143.36 275.342-275.342z" />
<glyph unicode="&#xe902;" glyph-name="data-transmission" horiz-adv-x="1229" d="M1199.104 725.504c18.432-18.432 29.696-44.032 29.696-72.704 0-56.32-46.080-102.4-102.4-102.4-28.672 0-54.272 11.264-72.704 29.696l-29.696 30.72v-572.416c0-56.32-46.080-102.4-102.4-102.4s-102.4 46.080-102.4 102.4v572.416l-29.696-30.72c-18.432-18.432-44.032-29.696-72.704-29.696-56.32 0-102.4 46.080-102.4 102.4 0 28.672 11.264 54.272 29.696 72.704l204.8 204.8c18.432 18.432 44.032 29.696 72.704 29.696s54.272-11.264 72.704-29.696l204.8-204.8zM584.704 170.496l-204.8-204.8c-18.432-18.432-44.032-29.696-72.704-29.696s-54.272 11.264-72.704 29.696l-204.8 204.8c-18.432 18.432-29.696 44.032-29.696 72.704 0 56.32 46.080 102.4 102.4 102.4 28.672 0 54.272-11.264 72.704-29.696l29.696-29.696v571.392c0 56.32 46.080 102.4 102.4 102.4s102.4-46.080 102.4-102.4v-571.392l29.696 29.696c18.432 18.432 44.032 29.696 72.704 29.696 56.32 0 102.4-46.080 102.4-102.4 0-28.672-11.264-54.272-29.696-72.704z" />
<glyph unicode="&#xe903;" glyph-name="data-transmission1" horiz-adv-x="614" d="M584.704 170.496l-204.8-204.8c-18.432-18.432-44.032-29.696-72.704-29.696s-54.272 11.264-72.704 29.696l-204.8 204.8c-18.432 18.432-29.696 44.032-29.696 72.704 0 56.32 46.080 102.4 102.4 102.4 28.672 0 54.272-11.264 72.704-29.696l29.696-29.696v571.392c0 56.32 46.080 102.4 102.4 102.4s102.4-46.080 102.4-102.4v-571.392l29.696 29.696c18.432 18.432 44.032 29.696 72.704 29.696 56.32 0 102.4-46.080 102.4-102.4 0-28.672-11.264-54.272-29.696-72.704z" />
<glyph unicode="&#xe904;" glyph-name="heart-plus" horiz-adv-x="1243" d="M1097.143 448h73.143c40.229 0 73.143-32.914 73.143-73.143s-32.914-73.143-73.143-73.143h-73.143v-73.143c0-40.229-32.914-73.143-73.143-73.143s-73.143 32.914-73.143 73.143v73.143h-73.143c-40.229 0-73.143 32.914-73.143 73.143s32.914 73.143 73.143 73.143h73.143v73.143c0 40.229 32.914 73.143 73.143 73.143s73.143-32.914 73.143-73.143v-73.143zM1072.274 863.451c49.737-49.006 79.726-110.446 90.697-174.080-38.034 31.451-85.577 51.2-138.971 51.2-11.703 0-22.674-1.463-34.377-3.657-5.851 8.046-11.703 16.091-19.017 23.406-33.646 34.377-78.994 52.663-127.269 52.663-46.080 0-89.234-16.823-123.611-47.543l-98.011-97.28-98.011 97.28c-34.377 30.72-77.531 47.543-123.611 47.543-48.274 0-93.623-18.286-127.269-52.663-35.109-34.377-54.126-80.457-54.126-129.463s19.017-94.354 53.394-128.731l349.623-345.966 84.114 83.383c27.794-35.109 65.829-60.709 108.983-73.874 2.194-6.583 3.657-13.166 5.851-19.017l-201.143-201.143-452.023 452.754c-128.731 128.731-128.731 336.457 0 465.189 124.343 124.343 323.291 127.269 452.023 10.971 129.536 116.297 328.411 113.371 452.754-10.971z" />
<glyph unicode="&#xe905;" glyph-name="List-copy" d="M448 384v-192h-192v192h192zM384 256v64h-64v-64h64zM768 384v-192h-192v192h192zM704 256v64h-64v-64h64zM768 704v-192h-192v192h192zM704 576v64h-64v-64h64zM1024 768v-640c0-106.24-85.76-192-192-192h-640c-106.24 0-192 85.76-192 192v640c0 106.24 85.76 192 192 192h640c106.24 0 192-85.76 192-192zM896 128v640c0 35.2-28.8 64-64 64h-640c-35.2 0-64-28.8-64-64v-640c0-35.2 28.8-64 64-64h640c35.2 0 64 28.8 64 64zM448 704v-192h-192v192h192zM384 576v64h-64v-64h64z" />
<glyph unicode="&#xe906;" glyph-name="minus" d="M896 448c0 211.84-172.16 384-384 384s-384-172.16-384-384 172.16-384 384-384 384 172.16 384 384zM512 960c282.88 0 512-229.12 512-512s-229.12-512-512-512-512 229.12-512 512 229.12 512 512 512zM640 512c35.2 0 64-28.8 64-64s-28.8-64-64-64h-256c-35.2 0-64 28.8-64 64s28.8 64 64 64h256z" />
<glyph unicode="&#xe907;" glyph-name="plus" d="M576 512h64c35.2 0 64-28.8 64-64s-28.8-64-64-64h-64v-64c0-35.2-28.8-64-64-64s-64 28.8-64 64v64h-64c-35.2 0-64 28.8-64 64s28.8 64 64 64h64v64c0 35.2 28.8 64 64 64s64-28.8 64-64v-64zM896 448c0 211.84-172.16 384-384 384s-384-172.16-384-384 172.16-384 384-384 384 172.16 384 384zM512 960c282.88 0 512-229.12 512-512s-229.12-512-512-512-512 229.12-512 512 229.12 512 512 512z" />
<glyph unicode="&#xe908;" glyph-name="basket" d="M810.88 480h-597.76l90.88-320h416l90.88 320zM807.68 608h152.32c35.2 0 64-28.8 64-64s-28.8-64-64-64h-16l-114.56-401.28h-0.64c-7.68-26.88-31.36-46.72-60.8-46.72h-512c-29.44 0-53.12 19.84-60.8 46.72h-0.64l-114.56 401.28h-16c-35.2 0-64 28.8-64 64s28.8 64 64 64h152.32l110.72 220.8c11.52 20.48 32 35.2 56.96 35.2 35.2 0 64-28.8 64-64 0-10.24-3.2-19.84-7.040-28.16v-0.64l-81.28-163.2h304.64l-81.28 163.2v0.64c-3.84 8.32-7.040 17.92-7.040 28.16 0 35.2 28.8 64 64 64 24.96 0 45.44-14.72 56.96-35.2l110.72-220.8z" />
<glyph unicode="&#xe90a;" glyph-name="check" d="M986.88 613.12l-512-512c-23.040-23.040-55.040-37.12-90.88-37.12s-67.84 14.080-90.88 37.12l-256 256c-23.040 23.040-37.12 55.040-37.12 90.88 0 70.4 57.6 128 128 128 35.84 0 67.84-14.080 90.88-37.12l165.12-165.12 421.12 421.12c23.040 23.040 55.040 37.12 90.88 37.12 70.4 0 128-57.6 128-128 0-35.84-14.080-67.84-37.12-90.88z" />
<glyph unicode="&#xe90b;" glyph-name="dnd-copy-4" d="M896 448c0 211.84-172.16 384-384 384s-384-172.16-384-384 172.16-384 384-384 384 172.16 384 384zM512 960c282.88 0 512-229.12 512-512s-229.12-512-512-512-512 229.12-512 512 229.12 512 512 512zM640 512c35.2 0 64-28.8 64-64s-28.8-64-64-64h-256c-35.2 0-64 28.8-64 64s28.8 64 64 64h256z" />
<glyph unicode="&#xe90e;" glyph-name="gear" horiz-adv-x="896" d="M448 576c70.4 0 128-56.96 128-128 0-70.4-57.6-128-128-128s-128 57.6-128 128c0 71.040 57.6 128 128 128zM704 448c0 141.44-114.56 256-256 256s-256-114.56-256-256 114.56-256 256-256 256 114.56 256 256zM833.28 365.44c37.76-22.4 62.72-62.72 62.72-109.44 0-70.4-57.6-128-128-128-24.32 0-46.72 7.040-65.92 18.56l-10.88 6.4c-34.56-28.16-72.96-50.56-115.2-65.28v-23.68c0-70.4-57.6-128-128-128s-128 57.6-128 128v23.68c-42.24 14.72-80.64 37.12-115.2 65.28l-10.88-6.4h-0.64c-19.2-11.52-40.96-18.56-65.28-18.56-70.4 0-128 57.6-128 128 0 46.72 24.96 87.040 62.080 109.44v0.64l9.6 5.76c-5.12 24.32-7.68 49.92-7.68 76.16s2.56 51.84 7.68 76.8l-9.6 5.76c-37.12 22.4-62.080 62.72-62.080 109.44 0 70.4 57.6 128 128 128 24.32 0 46.080-7.040 65.28-18.56l0.64 0.64 10.88-7.040c34.56 28.16 72.96 50.56 115.2 65.28v23.68c0 70.4 57.6 128 128 128s128-57.6 128-128v-23.68c42.24-14.72 80.64-37.12 115.2-65.28l10.88 7.040v-0.64c19.2 11.52 41.6 18.56 65.92 18.56 70.4 0 128-57.6 128-128 0-46.72-24.96-86.4-62.080-109.44l-9.6-5.76c5.12-24.96 7.68-50.56 7.68-76.8s-2.56-51.84-7.68-76.16l9.6-5.76-0.64-0.64z" />
<glyph unicode="&#xe90f;" glyph-name="heart" d="M896.64 608c0 42.88-16.64 83.2-47.36 113.28-29.44 30.080-69.12 46.080-111.36 46.080-40.32 0-78.080-14.72-108.16-41.6l-85.76-85.12-85.76 85.12c-30.080 26.88-67.84 41.6-108.16 41.6-42.24 0-81.92-16-111.36-46.080-30.72-30.080-47.36-70.4-47.36-113.28s16.64-82.56 46.72-112.64l305.92-302.72 305.28 302.080c30.72 30.72 47.36 70.4 47.36 113.28zM938.24 811.52c112.64-112.64 112.64-294.4 0-407.040l-396.16-396.16-395.52 396.16c-112.64 112.64-112.64 294.4 0 407.040 108.8 108.8 282.88 111.36 395.52 9.6 113.344 101.76 287.36 99.2 396.16-9.6z" />
<glyph unicode="&#xe911;" glyph-name="linespacing" d="M832 128c35.2 0 64-28.8 64-64s-28.8-64-64-64h-256c-35.2 0-64 28.8-64 64s28.8 64 64 64h256zM832 640c35.2 0 64-28.8 64-64s-28.8-64-64-64h-256c-35.2 0-64 28.8-64 64s28.8 64 64 64h256zM960 896c35.2 0 64-28.8 64-64s-28.8-64-64-64h-384c-35.2 0-64 28.8-64 64s28.8 64 64 64h384zM365.44 82.56l-128-128c-11.52-11.52-27.52-18.56-45.44-18.56s-33.92 7.040-45.44 18.56l-128 128c-11.52 11.52-18.56 27.52-18.56 45.44 0 35.2 28.8 64 64 64 17.92 0 33.92-7.040 45.44-18.56l18.56-18.56v586.88l-18.56-19.2c-11.52-11.52-27.52-18.56-45.44-18.56-35.2 0-64 28.8-64 64 0 17.92 7.040 33.92 18.56 45.44l128 128c11.52 11.52 27.52 18.56 45.44 18.56s33.92-7.040 45.44-18.56l128-128c11.52-11.52 18.56-27.52 18.56-45.44 0-35.2-28.8-64-64-64-17.92 0-33.92 7.040-45.44 18.56l-18.56 19.2v-586.88l18.56 18.56c11.52 11.52 27.52 18.56 45.44 18.56 35.2 0 64-28.8 64-64 0-17.92-7.040-33.92-18.56-45.44zM832 384h128c35.2 0 64-28.8 64-64s-28.8-64-64-64h-384c-35.2 0-64 28.8-64 64s28.8 64 64 64h256z" />
<glyph unicode="&#xe912;" glyph-name="List1" d="M272 304h128v-128h-128v128zM272 496h128v-128h-128v128zM272 688h128v-128h-128v128zM464 688h128v-128h-128v128zM464 496h128v-128h-128v128zM464 304h128v-128h-128v128zM656 304h128v-128h-128v128zM656 496h128v-128h-128v128zM656 688h128v-128h-128v128zM912 112v640c0 35.2-28.8 64-64 64h-640c-35.2 0-64-28.8-64-64v-640c0-35.2 28.8-64 64-64h640c35.2 0 64 28.8 64 64zM1040 752v-640c0-106.24-85.76-192-192-192h-640c-106.24 0-192 85.76-192 192v640c0 106.24 85.76 192 192 192h640c106.24 0 192-85.76 192-192z" />
<glyph unicode="&#xe913;" glyph-name="List2" d="M264 704h128v-128h-128v128zM264 512h128v-128h-128v128zM264 320h128v-128h-128v128zM456 320h320v-128h-320v128zM456 512h320v-128h-320v128zM456 704h320v-128h-320v128zM840 64c35.2 0 64 28.8 64 64v640c0 35.2-28.8 64-64 64h-640c-35.2 0-64-28.8-64-64v-640c0-35.2 28.8-64 64-64h640zM840 960c106.24 0 192-85.76 192-192v-640c0-106.24-85.76-192-192-192h-640c-106.24 0-192 85.76-192 192v640c0 106.24 85.76 192 192 192h640z" />
<glyph unicode="&#xe914;" glyph-name="location-pin" horiz-adv-x="768" d="M448 576c0-35.346-28.654-64-64-64s-64 28.654-64 64c0 35.346 28.654 64 64 64s64-28.654 64-64zM641.28 576c0 140.8-114.56 256-256 256s-256-115.2-256-256c0-81.92 120.32-272.64 256-442.24 135.68 169.6 256 360.32 256 442.24zM384 960c211.84 0 384-172.16 384-384s-384-640-384-640-384 428.16-384 640 172.16 384 384 384z" />
<glyph unicode="&#xe915;" glyph-name="mail" d="M509.44 474.24l293.76 293.76h-583.68l289.92-293.76zM896 192v487.68l-341.12-341.12c-12.16-12.16-28.16-18.56-45.44-18.56-16.64 0-32.64 6.4-44.8 18.56l-336.64 339.84v-486.4c0-35.2 28.8-64 64-64h640c35.2 0 64 28.8 64 64zM1024 768v-640c0-70.4-57.6-128-128-128h-768c-70.4 0-128 57.6-128 128v640c0 70.4 57.6 128 128 128h768c70.4 0 128-57.6 128-128z" />
<glyph unicode="&#xe916;" glyph-name="Menu" d="M118.154 960h787.692c65.221 0 118.154-52.854 118.154-118.154s-52.933-118.154-118.154-118.154h-787.692c-65.221 0-118.154 52.854-118.154 118.154s52.933 118.154 118.154 118.154zM118.154 566.154h787.692c65.221 0 118.154-52.854 118.154-118.154s-52.933-118.154-118.154-118.154h-787.692c-65.221 0-118.154 52.854-118.154 118.154s52.933 118.154 118.154 118.154zM118.154 172.308h787.692c65.221 0 118.154-52.854 118.154-118.154s-52.933-118.154-118.154-118.154h-787.692c-65.221 0-118.154 52.854-118.154 118.154s52.933 118.154 118.154 118.154z" />
<glyph unicode="&#xe917;" glyph-name="Options" d="M1024 192c0-106.24-85.76-192-192-192h-640c-106.24 0-192 85.76-192 192v320c0 106.24 85.76 192 192 192h48.64c-32.64-40.96-58.88-86.4-78.080-136.32-20.48-10.24-34.56-31.36-34.56-55.68v-320c0-35.2 28.8-64 64-64h640c35.2 0 64 28.8 64 64v160l128 96v-256zM998.4 691.2c16-12.16 25.6-31.36 25.6-51.2s-9.6-39.040-25.6-51.2l-256-192c-11.52-8.32-24.96-12.8-38.4-12.8-9.6 0-19.84 2.56-28.8 7.040-21.76 10.88-35.2 32.64-35.2 56.96v64c-167.040 0-309.12-106.88-361.6-256-14.080 40.32-22.4 83.2-22.4 128 0 211.84 172.16 384 384 384v64c0 24.32 13.44 46.72 35.2 56.96 8.96 5.12 19.2 7.040 28.8 7.040 13.44 0 26.88-4.48 38.4-12.8l256-192z" />
<glyph unicode="&#xe918;" glyph-name="power" d="M849.92 751.787c186.368-186.368 186.368-489.472 0-675.84s-489.472-186.368-675.84 0-186.368 489.472 0 675.84l48.469 48.469c26.624 26.624 69.632 26.624 96.256 0s26.624-70.315 0-96.939l-48.469-47.787c-133.12-133.803-133.12-349.525 0-483.328 133.803-133.12 349.525-133.12 483.328 0 133.12 133.803 133.12 349.525 0 483.328l-48.469 47.787c-26.624 26.624-26.624 70.315 0 96.939s69.632 26.624 96.256 0l48.469-48.469zM580.267 891.733v-273.067c0-37.547-30.72-68.267-68.267-68.267s-68.267 30.72-68.267 68.267v273.067c0 37.547 30.72 68.267 68.267 68.267s68.267-30.72 68.267-68.267z" />
<glyph unicode="&#xe919;" glyph-name="reload" d="M1019.733 870.4v0-241.323c0-21.845-8.363-43.691-25.003-60.331s-38.485-25.003-60.331-25.003v0h-241.408c-21.845 0-43.691 8.363-60.331 25.003-33.365 33.28-33.365 87.296 0 120.661 16.725 16.64 38.485 25.003 60.331 25.003v0h30.037c-58.197 46.165-130.901 74.923-211.029 74.923-94.293 0-179.627-38.144-241.323-99.925v0c-33.365-33.365-87.381-33.365-120.747 0-33.28 33.365-33.28 87.381 0 120.747v0c92.672 92.587 220.672 149.845 362.069 149.845 129.707 0 246.784-49.749 337.067-129.365v39.765c0 21.845 8.277 43.691 24.917 60.331 33.365 33.365 87.381 33.365 120.747 0 16.64-16.725 25.003-38.485 25.003-60.331zM391.339 206.592c-16.725-16.555-38.571-24.917-60.331-24.917v0h-30.037c58.197-46.251 130.901-75.008 211.029-75.008 94.293 0 179.627 38.229 241.408 99.925v0c33.365 33.365 87.381 33.365 120.661 0 33.365-33.28 33.365-87.296 0-120.661v0c-92.672-92.672-220.672-149.931-362.069-149.931-129.707 0-246.784 49.835-337.067 129.365v-39.765c0-21.845-8.277-43.691-25.003-60.416-33.28-33.28-87.296-33.28-120.661 0-16.64 16.811-25.003 38.571-25.003 60.416v0 241.408c0 21.845 8.363 43.691 25.003 60.331s38.485 25.003 60.331 25.003v0h241.408c21.845 0 43.691-8.363 60.331-25.003 33.28-33.365 33.28-87.381 0-120.747z" />
<glyph unicode="&#xe91a;" glyph-name="Right" d="M28.843 598.528l0.341 0.171c-17.92 20.48-29.184 47.104-29.184 76.8 0 62.805 49.152 113.835 109.739 113.835 31.915 0 60.587-14.507 80.555-37.205l0.341 0.171 321.365-363.52 321.365 363.52 0.171-0.171c20.139 22.699 48.64 37.205 80.725 37.205 60.587 0 109.739-51.029 109.739-113.835 0-29.696-11.264-56.32-29.184-76.629l0.341-0.171-402.261-455.168c-20.821-23.381-50.176-36.864-80.896-36.864-30.891 0-60.075 13.483-80.896 36.864l-402.261 454.997z" />
<glyph unicode="&#xe91b;" glyph-name="search" d="M673.28 286.72c124.8 125.44 124.8 327.68 0 452.48-125.44 125.44-327.68 125.44-452.48 0-125.44-124.8-125.44-327.040 0-452.48 124.736-124.8 327.040-124.8 452.48 0zM1006.080-46.080c-24.96-24.96-65.92-24.96-90.88 0l-201.6 201.6c-175.36-131.2-424.32-118.4-583.68 40.96-174.72 174.72-174.72 458.24 0 633.6 175.36 174.72 458.88 174.72 633.6 0 159.36-159.36 172.16-408.32 40.96-583.68l201.6-201.6c24.896-24.96 24.896-65.92 0-90.88z" />
<glyph unicode="&#xe91c;" glyph-name="sliders" horiz-adv-x="896" d="M832 896v-75.52c-19.84 7.040-41.6 11.52-64 11.52s-44.16-4.48-64-11.52v75.52c0 35.2 28.8 64 64 64s64-28.8 64-64zM896 640v-64c0-70.4-57.6-128-128-128s-128 57.6-128 128v64c0 71.040 57.6 128 128 128s128-56.96 128-128zM832 395.52v-395.52c0-35.2-28.8-64-64-64s-64 28.8-64 64v395.52c19.84-7.040 41.6-11.52 64-11.52s44.16 4.48 64 11.52zM512 75.52v-75.52c0-35.2-28.8-64-64-64s-64 28.8-64 64v75.52c19.84-7.040 41.6-11.52 64-11.52s44.16 4.48 64 11.52zM576 320v-64c0-70.4-57.6-128-128-128s-128 57.6-128 128v64c0 71.040 57.6 128 128 128s128-56.96 128-128zM192 395.52v-395.52c0-35.2-28.8-64-64-64s-64 28.8-64 64v395.52c19.84-7.040 41.6-11.52 64-11.52s44.16 4.48 64 11.52zM512 896v-395.52c-19.84 7.040-41.6 11.52-64 11.52s-44.16-4.48-64-11.52v395.52c0 35.2 28.8 64 64 64s64-28.8 64-64zM192 896v-75.52c-19.84 7.040-41.6 11.52-64 11.52s-44.16-4.48-64-11.52v75.52c0 35.2 28.8 64 64 64s64-28.8 64-64zM256 640v-64c0-70.4-57.6-128-128-128s-128 57.6-128 128v64c0 71.040 57.6 128 128 128s128-56.96 128-128z" />
<glyph unicode="&#xe91d;" glyph-name="user-copy" d="M512 277.333c113.323 0 204.8 122.197 204.8 273.067s-91.477 273.067-204.8 273.067-204.8-122.197-204.8-273.067 91.477-273.067 204.8-273.067zM853.333 550.4c0-65.536-13.653-126.293-36.864-180.907 105.131-87.381 173.397-217.771 173.397-365.227 0-37.547-30.72-68.267-68.267-68.267s-68.267 30.72-68.267 68.267c0 98.304-42.325 186.368-108.544 248.491-60.757-68.949-142.677-111.957-232.789-111.957s-172.032 43.008-232.789 111.957c-66.901-62.123-108.544-150.187-108.544-248.491 0-37.547-30.72-68.267-68.267-68.267s-68.267 30.72-68.267 68.267c0 147.456 68.267 277.845 172.715 365.227-22.528 54.613-36.181 115.371-36.181 180.907 0 225.963 152.917 409.6 341.333 409.6s341.333-183.637 341.333-409.6z" />
<glyph unicode="&#xe91e;" glyph-name="zoom-in" d="M512 576h64c35.2 0 64-28.8 64-64s-28.8-64-64-64h-64v-64c0-35.2-28.8-64-64-64s-64 28.8-64 64v64h-64c-35.2 0-64 28.8-64 64s28.8 64 64 64h64v64c0 35.2 28.8 64 64 64s64-28.8 64-64v-64zM673.28 286.72c124.8 124.8 124.8 327.68 0 452.48-124.8 125.44-327.68 125.44-452.48 0-125.44-124.8-125.44-327.68 0-452.48 124.736-124.8 327.616-124.8 452.48 0zM1006.080-46.080c-24.96-24.96-65.92-24.96-90.88 0l-201.6 201.6c-175.36-131.2-424.32-118.4-583.68 40.96-174.72 174.72-174.72 458.24 0 633.6 175.36 174.72 458.88 174.72 633.6 0 159.36-159.36 172.16-408.32 40.96-583.68l201.6-201.6c24.896-24.96 24.896-65.92 0-90.88z" />
</font>
</defs>
</svg>
